<svg width="153" height="152" viewBox="0 0 153 152" fill="none" xmlns="http://www.w3.org/2000/svg">
<g clip-path="url(#clip0)">
<path d="M106.61 92.8773C137.025 71.238 134.76 25.7497 102.606 7.03086C102.509 6.96265 102.402 6.90252 102.29 6.8505C83.1898 -4.08944 58.7004 -1.88226 41.8229 13.1599C40.9026 13.9796 40.8268 15.3832 41.6538 16.2943C42.4807 17.2066 43.8967 17.2806 44.817 16.4608C55.8171 6.65741 70.8133 2.53788 85.2612 5.25841C85.0548 7.67718 83.3554 10.296 81.4985 12.0464C77.8512 15.485 62.7478 12.5182 57.2623 24.4073C56.496 26.0653 55.4392 29.0102 54.4898 30.4855C54.0081 28.8206 53.615 26.2052 51.498 24.4305C50.2278 23.3656 48.869 22.895 47.4588 23.0303C44.9231 23.2766 43.1642 25.4606 42.1121 26.7648C39.8902 29.5235 40.8793 32.0001 41.6001 33.8095C42.2684 35.4826 42.8446 36.9266 41.7716 39.3327C40.7428 41.6416 42.8796 44.1621 43.5818 44.99C46.4604 48.3846 53.6838 54.0129 58.0857 52.9319C68.8293 50.2842 71.8712 67.641 79.0234 69.4493C84.3795 70.8032 89.5314 73.8741 88.8817 76.6709C86.8802 85.2823 78.6374 84.4406 73.4691 86.7113C70.6232 87.9623 65.4689 91.513 62.0094 95.8569C59.2778 94.9932 56.6534 93.896 54.1609 92.5802C54.4991 91.7986 54.8712 90.9812 55.2829 90.1221C59.0258 82.334 58.7786 78.2792 49.9246 71.0345C45.6813 67.5624 47.1462 62.8671 49.1233 59.5407C50.383 57.4214 49.7601 54.6708 47.7049 53.2799C44.5114 51.1143 35.1593 45.5646 30.7959 39.1778C32.4032 33.1852 35.1337 27.6701 38.9314 22.7655C39.6849 21.792 39.4995 20.3988 38.5185 19.6519C37.5364 18.905 36.1309 19.0888 35.3786 20.0612C22.8645 36.2237 20.6076 59.4702 32.5875 78.4538C48.3733 103.468 81.9021 110.023 106.103 93.2311C106.333 93.1144 106.471 93.0057 106.61 92.8773ZM105.96 87.7982C105.577 84.37 108.711 79.2273 111.54 74.5875C115.248 68.5059 118.749 62.7619 115.965 58.6562C113.326 54.7656 109.43 56.3357 104.87 52.6058C102.198 50.4195 99.7115 47.6515 101.175 40.0796C101.589 37.9337 103.671 35.2617 107.036 32.5562C109.229 30.793 110.049 27.8123 109.075 25.1404C108.687 24.0744 108.671 23.3853 108.775 23.1182C110.383 19.0287 103.576 16.8273 102.986 12.4927C129.384 30.2427 130.678 68.2145 105.96 87.7982ZM29.6377 44.8651C34.7441 50.468 41.7552 54.6246 45.1786 56.9462C45.2964 57.0248 45.3325 57.1717 45.2649 57.2873C41.2782 63.9967 41.9372 70.2563 47.0739 74.4591C55.571 81.4113 53.5543 82.9063 50.2826 90.2875C35.7309 80.713 27.0472 63.2498 29.6377 44.8651ZM66.8289 97.1125C69.6072 94.1711 73.2009 91.6865 75.2852 90.7708C79.553 88.8966 90.5823 89.137 93.2475 77.6664C94.6436 71.66 87.6663 67.0502 80.1315 65.146C76.0247 64.1077 71.0034 45.1784 57.008 48.6216C56.7257 48.6875 55.3412 48.5233 52.7495 46.9254C49.1373 44.6974 46.5129 41.8289 46.0347 40.7409C47.6256 36.8388 46.5117 34.0443 45.7664 32.1758C45.0818 30.4589 45.0678 30.2126 45.6125 29.5362C46.016 29.0356 47.2431 27.5129 47.8951 27.4493C48.0455 27.432 48.3115 27.573 48.6054 27.8204C50.4529 29.3697 49.5105 34.6593 53.5893 35.4282C57.9516 36.2491 59.6872 29.8276 61.3353 26.2538C65.799 16.5799 79.1587 20.3803 84.5859 15.263C87.4051 12.6049 89.185 9.37679 89.6422 6.29668C92.7996 7.20429 95.8205 8.41946 98.6711 9.9202C97.3018 16.3857 102.96 20.0982 104.434 22.0117C104.075 23.3251 104.218 24.8825 104.862 26.6481C105.189 27.5453 104.929 28.5338 104.215 29.1073C101.255 31.4867 97.5619 35.1773 96.7758 39.2437C94.9387 48.7522 98.3959 53.0648 102.019 56.0305C110.44 62.9203 117.65 55.9785 107.706 72.2901C103.976 78.4087 99.8107 85.2441 102.062 90.5765C91.9714 97.0373 79.4293 99.7116 66.8289 97.1125Z" fill="#565350"/>
<path d="M36.7258 128.606C37.1632 129.207 37.8478 129.527 38.543 129.527C40.3346 129.527 41.4403 127.494 40.3567 126.007C37.4163 121.968 24.3913 115.221 17.4385 108.424C14.7418 105.786 10.0156 96.679 8.77578 92.8404L5.71636 81.9225C5.36412 80.6645 7.214 79.8586 7.86017 81.2669C11.4258 88.803 11.7314 90.3396 13.5195 92.6231C17.6298 97.8733 22.966 102.202 28.9658 105.169L38.5033 114.675C38.9407 115.112 39.5158 115.33 40.0908 115.33C42.069 115.33 43.0849 112.946 41.6794 111.544L32.0544 101.95L28.2602 96.1067C27.621 94.8025 29.3204 93.5295 30.4436 94.6799C43.464 108.249 42.8411 107.84 43.5129 108.163L57.4874 114.893C65.1155 118.566 64.5696 126.575 64.7516 127.145C64.8647 128.366 65.9518 129.262 67.187 129.152C68.4198 129.04 69.3261 127.959 69.213 126.738L69.0159 124.613C68.47 118.733 64.8017 113.477 59.4445 110.898L45.8375 104.346L33.6803 91.6102C31.75 89.632 28.6777 89.2331 26.3741 90.6621C24.2956 91.9513 23.3136 94.3527 23.7544 96.6258C21.2654 94.6533 19.0084 92.3907 17.0571 89.9002C15.7717 88.2584 15.7321 87.5115 11.9378 79.4285C10.8216 76.9936 8.14594 75.6397 5.57523 76.2074C2.4505 76.8988 0.542299 80.0517 1.39959 83.1099C5.52158 97.8167 4.2129 93.2601 4.494 94.1458C5.90648 98.559 10.9639 108.331 14.2928 111.584C18.0847 115.291 23.408 118.894 28.1039 122.073C30.0517 123.391 35.5804 127.035 36.7258 128.606Z" fill="#565350"/>
<path d="M147.871 76.3645C145.137 75.4546 142.177 76.7299 140.985 79.3278C137.152 87.4964 137.11 88.2537 135.82 89.9001C133.869 92.3917 131.612 94.6544 129.123 96.6268C129.564 94.3538 128.581 91.9512 126.503 90.6632C124.201 89.2341 121.127 89.6319 119.181 91.6275L107.04 104.346L93.434 110.898C83.2819 115.786 83.8616 126.209 83.6563 126.83C83.5431 128.052 84.4494 129.132 85.6811 129.244C86.9105 129.358 88.0034 128.458 88.1165 127.237C88.2973 126.669 87.7479 118.571 95.3912 114.892C110.015 107.796 109.485 108.245 110.013 107.693L122.417 94.6972C123.57 93.5167 125.253 94.8093 124.616 96.1066L120.823 101.95L111.198 111.544C109.791 112.945 110.81 115.329 112.787 115.329C114.487 115.329 114.557 114.178 123.912 105.168C132.617 100.864 139.291 93.7537 141.183 89.6284L145.064 81.165C145.623 79.9452 147.544 80.5592 147.133 82.0252L144.102 92.8391C142.862 96.6789 138.136 105.786 135.44 108.422C128.505 115.203 115.503 121.941 112.541 125.979C111.456 127.455 112.542 129.507 114.35 129.507C115.041 129.507 115.724 129.19 116.162 128.592C118.416 125.525 131.465 118.546 138.585 111.585C141.912 108.331 146.971 98.5589 148.383 94.1456C148.666 93.2577 147.509 97.2697 151.449 83.2138C152.262 80.3118 150.691 77.3033 147.871 76.3645Z" fill="#565350"/>
<path d="M68.5259 133.705H41.0973C38.2338 133.705 35.9045 136.014 35.9045 138.852V146.399C35.9045 149.236 38.2338 151.545 41.0973 151.545H68.5259C71.3882 151.545 73.7174 149.236 73.7174 146.399V138.852C73.7174 136.014 71.3882 133.705 68.5259 133.705ZM69.2385 146.399C69.2385 146.788 68.9189 147.105 68.5259 147.105H41.0973C40.7042 147.105 40.3846 146.788 40.3846 146.399V138.852C40.3846 138.463 40.7042 138.146 41.0973 138.146H68.5259C68.9189 138.146 69.2385 138.463 69.2385 138.852V146.399Z" fill="#565350"/>
<path d="M111.781 133.705H84.3515C81.4892 133.705 79.1599 136.014 79.1599 138.852V146.399C79.1599 149.236 81.4892 151.545 84.3515 151.545H111.781C114.644 151.545 116.973 149.236 116.973 146.399V138.852C116.973 136.014 114.644 133.705 111.781 133.705ZM112.493 146.399C112.493 146.788 112.174 147.105 111.781 147.105H84.3515C83.9596 147.105 83.64 146.788 83.64 146.399V138.852C83.64 138.463 83.9596 138.146 84.3515 138.146H111.781C112.174 138.146 112.493 138.463 112.493 138.852V146.399Z" fill="#565350"/>
</g>
<defs>
<clipPath id="clip0">
<rect width="152.88" height="151.545" fill="white"/>
</clipPath>
</defs>
</svg>
