<svg width="151" height="151" viewBox="0 0 151 151" fill="none" xmlns="http://www.w3.org/2000/svg">
<path d="M149.973 0.862893C149.42 0.310512 148.671 0 147.889 0L75.4187 0.00382984C73.7919 0.00382984 72.473 1.32306 72.473 2.94986V11.3746L44.5478 18.8573C42.9761 19.2785 42.0434 20.8939 42.4647 22.4653L56.9377 76.4784L44.4173 88.9988C42.8238 86.672 40.1482 85.1418 37.1218 85.1418H8.84074C3.96741 85.1418 0.00292969 89.1066 0.00292969 93.9796V141.999C0.00292969 146.872 3.96741 150.837 8.84074 150.837H37.1221C41.2621 150.837 44.7449 147.975 45.6994 144.126L49.2023 147.181C51.9064 149.539 55.371 150.837 58.959 150.837H147.89C149.517 150.837 150.836 149.518 150.836 147.891V2.94603C150.835 2.16475 150.526 1.41527 149.973 0.862893ZM40.0675 141.999C40.0675 143.623 38.7459 144.945 37.1215 144.945H8.84044C7.216 144.945 5.89441 143.624 5.89441 141.999V93.9799C5.89441 92.3555 7.216 91.0339 8.84044 91.0339H20.0351V124.971C20.0351 126.598 21.3543 127.917 22.9811 127.917C24.6079 127.917 25.9271 126.598 25.9271 124.971V91.0339H37.1218C38.7462 91.0339 40.0678 92.3555 40.0678 93.9799V141.999H40.0675ZM48.9183 23.786L72.473 17.4744V28.3909L70.4986 28.92C69.7435 29.1224 69.1004 29.6159 68.7097 30.2926C68.3191 30.9693 68.213 31.7733 68.4154 32.528C69.5476 36.7529 67.0314 41.111 62.8065 42.2432C62.0508 42.4459 61.4065 42.9402 61.0162 43.6184C60.6258 44.2963 60.5206 45.1017 60.7248 45.8571L72.2081 88.3795H66.2955L63.2484 76.4587C63.1515 76.0793 62.9818 75.7296 62.7546 75.4255L48.9183 23.786ZM72.473 41.9011V66.7601L67.0997 46.864C69.3443 45.7051 71.1812 43.971 72.473 41.9011ZM114.797 144.945H58.9584C56.7945 144.945 54.7049 144.162 53.074 142.74L45.9596 136.535V95.7894L58.8214 82.9276L61.154 92.0544C61.4875 93.3586 62.6621 94.2707 64.0082 94.2707L121.928 94.2742C124.203 94.2742 126.053 96.1244 126.053 98.3987C126.053 100.673 124.203 102.523 121.928 102.523H92.25C90.6232 102.523 89.304 103.842 89.304 105.469C89.304 107.096 90.6232 108.415 92.25 108.415H131.149C133.424 108.415 135.274 110.265 135.274 112.54C135.274 114.814 133.424 116.664 131.149 116.664H92.25C90.6232 116.664 89.304 117.983 89.304 119.61C89.304 121.237 90.6232 122.556 92.25 122.556H124.846C127.12 122.556 128.97 124.406 128.97 126.681C128.97 128.955 127.12 130.805 124.846 130.805H92.25C90.6232 130.805 89.304 132.124 89.304 133.751C89.304 135.378 90.6232 136.697 92.25 136.697H114.797C117.071 136.697 118.921 138.547 118.921 140.822C118.921 143.095 117.071 144.945 114.797 144.945ZM144.944 144.945H144.944H123.921C124.492 143.686 124.813 142.29 124.813 140.82C124.813 139.35 124.492 137.955 123.921 136.696H124.846C130.369 136.696 134.862 132.203 134.862 126.68C134.862 125.069 134.478 123.547 133.799 122.197C138.04 121.032 141.165 117.145 141.165 112.539C141.165 110.305 140.429 108.239 139.188 106.572V69.2338C139.188 67.607 137.869 66.2878 136.242 66.2878C134.615 66.2878 133.296 67.607 133.296 69.2338V102.757C132.604 102.606 131.886 102.523 131.149 102.523H131.052C131.623 101.264 131.944 99.8688 131.944 98.3987C131.944 92.8755 127.451 88.3825 121.928 88.3825H117.192C122.221 86.226 125.753 81.2277 125.753 75.4185C125.753 67.6442 119.428 61.3193 111.654 61.3193C103.88 61.3193 97.5549 67.6442 97.5549 75.4185C97.5549 81.2277 101.087 86.226 106.115 88.3825H90.0113V32.366C95.2741 31.2191 99.4268 27.0667 100.573 21.8036H122.734C123.88 27.0667 128.033 31.2191 133.296 32.366V41.5252C133.296 43.152 134.615 44.4713 136.242 44.4713C137.869 44.4713 139.188 43.152 139.188 41.5252V29.7358C139.188 28.109 137.869 26.7898 136.242 26.7898C131.868 26.7898 128.31 23.2312 128.31 18.8576C128.31 17.2308 126.991 15.9115 125.364 15.9115H97.9435C96.3167 15.9115 94.9975 17.2308 94.9975 18.8576C94.9975 23.2315 91.4393 26.7898 87.0656 26.7898C85.4388 26.7898 84.1196 28.109 84.1196 29.7358V88.3822H78.3654V5.89531L144.944 5.89207V144.945ZM111.654 83.6255C107.129 83.6255 103.448 79.9439 103.448 75.4188C103.448 70.8936 107.129 67.2117 111.654 67.2117C116.179 67.2117 119.861 70.8933 119.861 75.4185C119.861 79.9436 116.18 83.6255 111.654 83.6255Z" fill="#565350"/>
</svg>
