<svg width="158" height="158" viewBox="0 0 158 158" fill="none" xmlns="http://www.w3.org/2000/svg">
<g clip-path="url(#clip0)">
<path d="M157.695 86.2984C156.277 72.0294 149.902 58.5773 139.745 48.4198C131.065 39.7398 120.44 34.1619 109.261 31.6817V23.8408C113.827 22.7049 117.221 18.5718 117.221 13.6592C117.221 7.87362 112.514 3.16687 106.729 3.16687H84.5094C78.7238 3.16687 74.0171 7.87362 74.0171 13.6592C74.0171 18.5715 77.411 22.7046 81.9767 23.8408V31.7036C70.8317 34.1943 60.2425 39.7645 51.5869 48.4201C49.6927 50.3143 47.946 52.3013 46.3472 54.3665C46.2697 54.3606 46.1923 54.3547 46.1133 54.3547H24.1222C22.4181 54.3547 21.0362 55.7363 21.0362 57.4407C21.0362 59.1451 22.4181 60.5267 24.1222 60.5267H42.1481C39.8854 64.3148 38.061 68.2929 36.6723 72.388H3.08599C1.3819 72.388 0 73.7696 0 75.474C0 77.1784 1.3819 78.56 3.08599 78.56H34.9284C34.039 82.4641 33.5286 86.4372 33.3968 90.4216H19.7503C18.0462 90.4216 16.6643 91.8032 16.6643 93.5076C16.6643 95.2119 18.0462 96.5935 19.7503 96.5935H33.4953C33.7557 100.588 34.3979 104.562 35.4222 108.455H15.4299C13.7258 108.455 12.3439 109.837 12.3439 111.541C12.3439 113.246 13.7258 114.627 15.4299 114.627H37.3917C40.419 122.636 45.1501 130.142 51.5869 136.578C61.754 146.745 75.22 153.122 89.5038 154.533C91.5424 154.734 93.5825 154.834 95.6199 154.834C107.662 154.834 119.551 151.349 129.639 144.779C131.067 143.849 131.471 141.937 130.541 140.509C129.611 139.081 127.699 138.677 126.271 139.607C104.189 153.987 74.6148 150.878 55.9511 132.214C34.0523 110.315 34.0523 74.6837 55.9511 52.7846C77.8495 30.8861 113.481 30.8861 135.38 52.7846C154.019 71.4239 157.145 100.973 142.813 123.044C141.885 124.474 142.291 126.385 143.721 127.313C145.151 128.241 147.061 127.835 147.989 126.405C155.647 114.612 159.094 100.369 157.695 86.2984ZM80.189 13.6595C80.189 11.2771 82.127 9.33915 84.5094 9.33915H106.729C109.111 9.33915 111.049 11.2771 111.049 13.6595C111.049 16.0419 109.111 17.9799 106.729 17.9799H106.175H85.0627H84.5094C82.127 17.9799 80.189 16.0416 80.189 13.6595ZM88.1487 30.6426V24.1519H103.089V30.6315C98.1279 30.0415 93.1088 30.0452 88.1487 30.6426Z" fill="#565350"/>
<path d="M137.564 131.309C136.749 131.309 135.956 131.639 135.382 132.213C134.805 132.787 134.478 133.583 134.478 134.395C134.478 135.206 134.805 136.003 135.382 136.577C135.956 137.154 136.749 137.481 137.564 137.481C138.375 137.481 139.169 137.154 139.746 136.577C140.32 136.003 140.65 135.206 140.65 134.395C140.65 133.583 140.32 132.787 139.746 132.213C139.169 131.639 138.375 131.309 137.564 131.309Z" fill="#565350"/>
<path d="M95.6658 44.6262C69.2689 44.6262 47.7932 66.1016 47.7932 92.4988C47.7932 118.896 69.2689 140.371 95.6658 140.371C122.063 140.371 143.538 118.896 143.538 92.4988C143.538 66.1016 122.063 44.6262 95.6658 44.6262ZM95.6658 134.199C72.6718 134.199 53.9652 115.492 53.9652 92.4988C53.9652 69.5051 72.6718 50.7982 95.6658 50.7982C118.66 50.7982 137.366 69.5051 137.366 92.4988C137.366 115.492 118.66 134.199 95.6658 134.199Z" fill="#565350"/>
<path d="M115.187 68.6139L99.9017 83.8985C98.6235 83.2665 97.1857 82.9094 95.6659 82.9094C94.1457 82.9094 92.7083 83.2665 91.4301 83.8985L84.5894 77.0578C83.384 75.8527 81.4305 75.8527 80.2249 77.0578C79.0198 78.2628 79.0198 80.2169 80.2249 81.422L87.0656 88.2627C86.4332 89.5409 86.0765 90.9786 86.0765 92.4985C86.0765 97.786 90.3781 102.088 95.6659 102.088C100.954 102.088 105.255 97.786 105.255 92.4985C105.255 90.9786 104.898 89.5409 104.266 88.2627L119.102 73.4265L119.551 72.9781C120.756 71.773 120.756 69.819 119.551 68.6139C118.346 67.4088 116.392 67.4088 115.187 68.6139ZM95.6659 95.9162C93.7816 95.9162 92.2485 94.3831 92.2485 92.4988C92.2485 90.6145 93.7816 89.0814 95.6659 89.0814C97.5502 89.0814 99.0833 90.6145 99.0833 92.4988C99.0833 94.3831 97.5502 95.9162 95.6659 95.9162Z" fill="#565350"/>
<path d="M128.661 89.4504H125.802C124.098 89.4504 122.716 90.832 122.716 92.5364C122.716 94.2407 124.098 95.6223 125.802 95.6223H128.661C130.365 95.6223 131.747 94.2407 131.747 92.5364C131.747 90.832 130.365 89.4504 128.661 89.4504Z" fill="#565350"/>
<path d="M65.5296 89.3751H62.6708C60.9667 89.3751 59.5848 90.7567 59.5848 92.4611C59.5848 94.1654 60.9667 95.547 62.6708 95.547H65.5296C67.2336 95.547 68.6155 94.1654 68.6155 92.4611C68.6155 90.7567 67.2336 89.3751 65.5296 89.3751Z" fill="#565350"/>
<path d="M95.7035 65.4485C97.4075 65.4485 98.7894 64.067 98.7894 62.3626V59.5038C98.7894 57.7994 97.4075 56.4178 95.7035 56.4178C93.9994 56.4178 92.6176 57.7994 92.6176 59.5038V62.3626C92.6176 64.067 93.9994 65.4485 95.7035 65.4485Z" fill="#565350"/>
<path d="M95.6282 119.549C93.9241 119.549 92.5422 120.931 92.5422 122.635V125.494C92.5422 127.198 93.9241 128.58 95.6282 128.58C97.3322 128.58 98.7141 127.198 98.7141 125.494V122.635C98.7141 120.931 97.3322 119.549 95.6282 119.549Z" fill="#565350"/>
<path d="M3.08594 108.454C2.27434 108.454 1.47816 108.784 0.90418 109.358C0.330195 109.932 0 110.728 0 111.54C0 112.355 0.329887 113.148 0.90418 113.722C1.47847 114.296 2.27434 114.626 3.08594 114.626C3.89754 114.626 4.69371 114.296 5.26739 113.722C5.84137 113.148 6.17188 112.352 6.17188 111.54C6.17188 110.728 5.84168 109.932 5.26739 109.358C4.69371 108.784 3.89754 108.454 3.08594 108.454Z" fill="#565350"/>
</g>
<defs>
<clipPath id="clip0">
<rect width="158" height="158" fill="white"/>
</clipPath>
</defs>
</svg>
